<mxfile host="app.diagrams.net" agent="Mozilla/5.0 (Windows NT 10.0; Win64; x64) AppleWebKit/537.36 (KHTML, like Gecko) Chrome/136.0.0.0 Safari/537.36" version="27.1.3" pages="3">
  <diagram name="simple flow" id="Uv0GA4SNd6SNXI4vOZ5g">
    <mxGraphModel dx="1310" dy="828" grid="1" gridSize="10" guides="1" tooltips="1" connect="1" arrows="1" fold="1" page="1" pageScale="1" pageWidth="827" pageHeight="1169" math="0" shadow="0">
      <root>
        <mxCell id="0" />
        <mxCell id="1" parent="0" />
        <mxCell id="WrCfxh-vnWmKmpq0DMSl-2" value="&lt;h1 style=&quot;margin-top: 0px;&quot;&gt;&lt;p data-end=&quot;243&quot; data-start=&quot;190&quot;&gt;&lt;br&gt;&lt;/p&gt;&lt;/h1&gt;" style="text;html=1;whiteSpace=wrap;overflow=hidden;rounded=1;fillColor=#f5f5f5;fontColor=#333333;strokeColor=#666666;strokeWidth=4;perimeterSpacing=0;arcSize=5;spacing=0;spacingLeft=30;spacingRight=30;fontSize=14;" vertex="1" parent="1">
          <mxGeometry x="120" y="140" width="990" height="1260" as="geometry" />
        </mxCell>
        <mxCell id="WrCfxh-vnWmKmpq0DMSl-9" style="edgeStyle=orthogonalEdgeStyle;rounded=0;orthogonalLoop=1;jettySize=auto;html=1;" edge="1" parent="1" source="WrCfxh-vnWmKmpq0DMSl-3" target="WrCfxh-vnWmKmpq0DMSl-4">
          <mxGeometry relative="1" as="geometry" />
        </mxCell>
        <mxCell id="WrCfxh-vnWmKmpq0DMSl-3" value="Developer Laptop" style="rounded=1;whiteSpace=wrap;html=1;" vertex="1" parent="1">
          <mxGeometry x="1470" y="300" width="140" height="60" as="geometry" />
        </mxCell>
        <mxCell id="WrCfxh-vnWmKmpq0DMSl-10" style="edgeStyle=orthogonalEdgeStyle;rounded=0;orthogonalLoop=1;jettySize=auto;html=1;" edge="1" parent="1" source="WrCfxh-vnWmKmpq0DMSl-4" target="WrCfxh-vnWmKmpq0DMSl-5">
          <mxGeometry relative="1" as="geometry" />
        </mxCell>
        <mxCell id="WrCfxh-vnWmKmpq0DMSl-15" value="deploys to" style="edgeLabel;html=1;align=center;verticalAlign=middle;resizable=0;points=[];" vertex="1" connectable="0" parent="WrCfxh-vnWmKmpq0DMSl-10">
          <mxGeometry x="-0.3773" y="3" relative="1" as="geometry">
            <mxPoint as="offset" />
          </mxGeometry>
        </mxCell>
        <mxCell id="WrCfxh-vnWmKmpq0DMSl-11" style="edgeStyle=orthogonalEdgeStyle;rounded=0;orthogonalLoop=1;jettySize=auto;html=1;" edge="1" parent="1" source="WrCfxh-vnWmKmpq0DMSl-4" target="WrCfxh-vnWmKmpq0DMSl-6">
          <mxGeometry relative="1" as="geometry" />
        </mxCell>
        <mxCell id="WrCfxh-vnWmKmpq0DMSl-4" value="feature/* branch" style="rounded=1;whiteSpace=wrap;html=1;" vertex="1" parent="1">
          <mxGeometry x="1650" y="300" width="140" height="60" as="geometry" />
        </mxCell>
        <mxCell id="WrCfxh-vnWmKmpq0DMSl-12" style="edgeStyle=orthogonalEdgeStyle;rounded=0;orthogonalLoop=1;jettySize=auto;html=1;" edge="1" parent="1" source="WrCfxh-vnWmKmpq0DMSl-5" target="WrCfxh-vnWmKmpq0DMSl-7">
          <mxGeometry relative="1" as="geometry" />
        </mxCell>
        <mxCell id="WrCfxh-vnWmKmpq0DMSl-6" value="main branch (CI/CD)" style="rounded=1;whiteSpace=wrap;html=1;" vertex="1" parent="1">
          <mxGeometry x="1650" y="400" width="140" height="60" as="geometry" />
        </mxCell>
        <mxCell id="WrCfxh-vnWmKmpq0DMSl-14" style="edgeStyle=orthogonalEdgeStyle;rounded=0;orthogonalLoop=1;jettySize=auto;html=1;" edge="1" parent="1" source="WrCfxh-vnWmKmpq0DMSl-7" target="WrCfxh-vnWmKmpq0DMSl-8">
          <mxGeometry relative="1" as="geometry" />
        </mxCell>
        <mxCell id="Zc3RU4ZIpLqdjYzdu9MM-1" value="manual approve" style="edgeLabel;html=1;align=center;verticalAlign=middle;resizable=0;points=[];" vertex="1" connectable="0" parent="WrCfxh-vnWmKmpq0DMSl-14">
          <mxGeometry x="-0.2222" y="4" relative="1" as="geometry">
            <mxPoint as="offset" />
          </mxGeometry>
        </mxCell>
        <mxCell id="WrCfxh-vnWmKmpq0DMSl-7" value="AWS Acc Account" style="rounded=1;whiteSpace=wrap;html=1;" vertex="1" parent="1">
          <mxGeometry x="2060" y="400" width="140" height="60" as="geometry" />
        </mxCell>
        <mxCell id="WrCfxh-vnWmKmpq0DMSl-8" value="AWS Prod Account" style="rounded=1;whiteSpace=wrap;html=1;" vertex="1" parent="1">
          <mxGeometry x="2380" y="400" width="140" height="60" as="geometry" />
        </mxCell>
        <mxCell id="WrCfxh-vnWmKmpq0DMSl-13" value="" style="edgeStyle=orthogonalEdgeStyle;rounded=0;orthogonalLoop=1;jettySize=auto;html=1;" edge="1" parent="1" source="WrCfxh-vnWmKmpq0DMSl-6" target="WrCfxh-vnWmKmpq0DMSl-5">
          <mxGeometry relative="1" as="geometry">
            <mxPoint x="1790" y="430" as="sourcePoint" />
            <mxPoint x="2060" y="430" as="targetPoint" />
          </mxGeometry>
        </mxCell>
        <mxCell id="WrCfxh-vnWmKmpq0DMSl-5" value="AWS Dev Account" style="rounded=1;whiteSpace=wrap;html=1;" vertex="1" parent="1">
          <mxGeometry x="1850" y="400" width="140" height="60" as="geometry" />
        </mxCell>
      </root>
    </mxGraphModel>
  </diagram>
  <diagram id="dKhc6FEyKh_5SbTKwiFq" name="advanced flow">
    <mxGraphModel dx="296" dy="710" grid="1" gridSize="10" guides="1" tooltips="1" connect="1" arrows="1" fold="1" page="1" pageScale="1" pageWidth="827" pageHeight="1169" math="0" shadow="0">
      <root>
        <mxCell id="0" />
        <mxCell id="1" parent="0" />
        <mxCell id="Q-yv3Z5rBcekkCjQj5Yx-1" value="AWS Dev Account" style="rounded=1;whiteSpace=wrap;html=1;" vertex="1" parent="1">
          <mxGeometry x="1850" y="610" width="140" height="170" as="geometry" />
        </mxCell>
        <mxCell id="Q-yv3Z5rBcekkCjQj5Yx-2" style="edgeStyle=orthogonalEdgeStyle;rounded=0;orthogonalLoop=1;jettySize=auto;html=1;" edge="1" parent="1" source="Q-yv3Z5rBcekkCjQj5Yx-3" target="Q-yv3Z5rBcekkCjQj5Yx-10">
          <mxGeometry relative="1" as="geometry" />
        </mxCell>
        <mxCell id="Q-yv3Z5rBcekkCjQj5Yx-3" value="Developer Laptop" style="rounded=1;whiteSpace=wrap;html=1;" vertex="1" parent="1">
          <mxGeometry x="1470" y="550" width="140" height="60" as="geometry" />
        </mxCell>
        <mxCell id="Q-yv3Z5rBcekkCjQj5Yx-4" style="edgeStyle=orthogonalEdgeStyle;rounded=0;orthogonalLoop=1;jettySize=auto;html=1;entryX=0.5;entryY=0;entryDx=0;entryDy=0;" edge="1" parent="1" source="Q-yv3Z5rBcekkCjQj5Yx-10" target="Q-yv3Z5rBcekkCjQj5Yx-18">
          <mxGeometry relative="1" as="geometry" />
        </mxCell>
        <mxCell id="Q-yv3Z5rBcekkCjQj5Yx-5" value="deploys to" style="edgeLabel;html=1;align=center;verticalAlign=middle;resizable=0;points=[];" vertex="1" connectable="0" parent="Q-yv3Z5rBcekkCjQj5Yx-4">
          <mxGeometry x="-0.3773" y="3" relative="1" as="geometry">
            <mxPoint as="offset" />
          </mxGeometry>
        </mxCell>
        <mxCell id="Q-yv3Z5rBcekkCjQj5Yx-6" style="edgeStyle=orthogonalEdgeStyle;rounded=0;orthogonalLoop=1;jettySize=auto;html=1;" edge="1" parent="1" source="Q-yv3Z5rBcekkCjQj5Yx-10" target="Q-yv3Z5rBcekkCjQj5Yx-12">
          <mxGeometry relative="1" as="geometry" />
        </mxCell>
        <mxCell id="Q-yv3Z5rBcekkCjQj5Yx-7" value="merge" style="edgeLabel;html=1;align=center;verticalAlign=middle;resizable=0;points=[];" vertex="1" connectable="0" parent="Q-yv3Z5rBcekkCjQj5Yx-6">
          <mxGeometry x="0.2476" y="-4" relative="1" as="geometry">
            <mxPoint x="4" y="-13" as="offset" />
          </mxGeometry>
        </mxCell>
        <mxCell id="Q-yv3Z5rBcekkCjQj5Yx-8" style="edgeStyle=orthogonalEdgeStyle;rounded=0;orthogonalLoop=1;jettySize=auto;html=1;entryX=0;entryY=0.5;entryDx=0;entryDy=0;exitX=1;exitY=0.5;exitDx=0;exitDy=0;" edge="1" parent="1" source="Q-yv3Z5rBcekkCjQj5Yx-12" target="Q-yv3Z5rBcekkCjQj5Yx-18">
          <mxGeometry relative="1" as="geometry">
            <Array as="points">
              <mxPoint x="1820" y="740" />
              <mxPoint x="1820" y="650" />
            </Array>
          </mxGeometry>
        </mxCell>
        <mxCell id="Q-yv3Z5rBcekkCjQj5Yx-9" value="cleanup&lt;br&gt;&amp;nbsp;job" style="edgeLabel;html=1;align=center;verticalAlign=middle;resizable=0;points=[];" vertex="1" connectable="0" parent="Q-yv3Z5rBcekkCjQj5Yx-8">
          <mxGeometry x="-0.1161" y="-2" relative="1" as="geometry">
            <mxPoint x="-2" y="-17" as="offset" />
          </mxGeometry>
        </mxCell>
        <mxCell id="Q-yv3Z5rBcekkCjQj5Yx-10" value="feature/* branch" style="rounded=1;whiteSpace=wrap;html=1;" vertex="1" parent="1">
          <mxGeometry x="1650" y="550" width="140" height="60" as="geometry" />
        </mxCell>
        <mxCell id="Q-yv3Z5rBcekkCjQj5Yx-11" style="edgeStyle=orthogonalEdgeStyle;rounded=0;orthogonalLoop=1;jettySize=auto;html=1;exitX=1;exitY=0.5;exitDx=0;exitDy=0;" edge="1" parent="1" source="Q-yv3Z5rBcekkCjQj5Yx-19" target="Q-yv3Z5rBcekkCjQj5Yx-21">
          <mxGeometry relative="1" as="geometry" />
        </mxCell>
        <mxCell id="Q-yv3Z5rBcekkCjQj5Yx-12" value="main branch (CI/CD)" style="rounded=1;whiteSpace=wrap;html=1;" vertex="1" parent="1">
          <mxGeometry x="1650" y="710" width="140" height="60" as="geometry" />
        </mxCell>
        <mxCell id="Q-yv3Z5rBcekkCjQj5Yx-14" value="AWS Acc Account" style="rounded=1;whiteSpace=wrap;html=1;" vertex="1" parent="1">
          <mxGeometry x="2060" y="610" width="140" height="165" as="geometry" />
        </mxCell>
        <mxCell id="Q-yv3Z5rBcekkCjQj5Yx-15" value="AWS Prod Account" style="rounded=1;whiteSpace=wrap;html=1;" vertex="1" parent="1">
          <mxGeometry x="2343.14" y="602.5" width="160" height="177.5" as="geometry" />
        </mxCell>
        <mxCell id="Q-yv3Z5rBcekkCjQj5Yx-16" value="" style="edgeStyle=orthogonalEdgeStyle;rounded=0;orthogonalLoop=1;jettySize=auto;html=1;" edge="1" parent="1" source="Q-yv3Z5rBcekkCjQj5Yx-12" target="Q-yv3Z5rBcekkCjQj5Yx-19">
          <mxGeometry relative="1" as="geometry">
            <mxPoint x="1790" y="680" as="sourcePoint" />
            <mxPoint x="2060" y="680" as="targetPoint" />
          </mxGeometry>
        </mxCell>
        <mxCell id="Q-yv3Z5rBcekkCjQj5Yx-17" value="deploy" style="edgeLabel;html=1;align=center;verticalAlign=middle;resizable=0;points=[];" vertex="1" connectable="0" parent="Q-yv3Z5rBcekkCjQj5Yx-16">
          <mxGeometry x="-0.1911" y="-7" relative="1" as="geometry">
            <mxPoint y="-7" as="offset" />
          </mxGeometry>
        </mxCell>
        <mxCell id="Q-yv3Z5rBcekkCjQj5Yx-18" value="feature 1 infra" style="rounded=1;whiteSpace=wrap;html=1;" vertex="1" parent="1">
          <mxGeometry x="1865" y="620" width="110" height="60" as="geometry" />
        </mxCell>
        <mxCell id="Q-yv3Z5rBcekkCjQj5Yx-19" value="dev infra" style="rounded=1;whiteSpace=wrap;html=1;" vertex="1" parent="1">
          <mxGeometry x="1865" y="710" width="110" height="60" as="geometry" />
        </mxCell>
        <mxCell id="Q-yv3Z5rBcekkCjQj5Yx-20" style="edgeStyle=orthogonalEdgeStyle;rounded=0;orthogonalLoop=1;jettySize=auto;html=1;entryX=0;entryY=0.5;entryDx=0;entryDy=0;" edge="1" parent="1" source="Q-yv3Z5rBcekkCjQj5Yx-21" target="Q-yv3Z5rBcekkCjQj5Yx-22">
          <mxGeometry relative="1" as="geometry">
            <mxPoint x="2260" y="730" as="targetPoint" />
          </mxGeometry>
        </mxCell>
        <mxCell id="50zp94hQCNYPPTLhKQxg-1" value="manual approve" style="edgeLabel;html=1;align=center;verticalAlign=middle;resizable=0;points=[];" vertex="1" connectable="0" parent="Q-yv3Z5rBcekkCjQj5Yx-20">
          <mxGeometry x="0.0467" y="-1" relative="1" as="geometry">
            <mxPoint x="-1" as="offset" />
          </mxGeometry>
        </mxCell>
        <mxCell id="Q-yv3Z5rBcekkCjQj5Yx-21" value="acc infra" style="rounded=1;whiteSpace=wrap;html=1;" vertex="1" parent="1">
          <mxGeometry x="2075" y="710" width="110" height="60" as="geometry" />
        </mxCell>
        <mxCell id="Q-yv3Z5rBcekkCjQj5Yx-22" value="prd infra" style="rounded=1;whiteSpace=wrap;html=1;" vertex="1" parent="1">
          <mxGeometry x="2358.14" y="712.5" width="110" height="60" as="geometry" />
        </mxCell>
        <mxCell id="Q-yv3Z5rBcekkCjQj5Yx-23" value="prd infra cell 2" style="rounded=1;whiteSpace=wrap;html=1;" vertex="1" parent="1">
          <mxGeometry x="2358.14" y="622.5" width="110" height="60" as="geometry" />
        </mxCell>
        <mxCell id="Q-yv3Z5rBcekkCjQj5Yx-24" value="prd infra cell 2, 3, ..., N" style="rounded=1;whiteSpace=wrap;html=1;" vertex="1" parent="1">
          <mxGeometry x="2368.14" y="616" width="110" height="60" as="geometry" />
        </mxCell>
      </root>
    </mxGraphModel>
  </diagram>
  <diagram id="oD7GHbhjsNDGWskra5__" name="ci-checks">
    <mxGraphModel dx="786" dy="497" grid="1" gridSize="10" guides="1" tooltips="1" connect="1" arrows="1" fold="1" page="1" pageScale="1" pageWidth="827" pageHeight="1169" math="0" shadow="0">
      <root>
        <mxCell id="0" />
        <mxCell id="1" parent="0" />
      </root>
    </mxGraphModel>
  </diagram>
</mxfile>
